<svg width="17" height="20" viewBox="0 0 17 20" fill="none" xmlns="http://www.w3.org/2000/svg">
<path d="M15.7516 15.307C15.4643 15.9708 15.1242 16.5818 14.7301 17.1436C14.193 17.9094 13.7532 18.4395 13.4142 18.7339C12.8888 19.2171 12.3259 19.4645 11.7231 19.4786C11.2903 19.4786 10.7684 19.3555 10.1609 19.1057C9.55139 18.857 8.99126 18.7339 8.4791 18.7339C7.94195 18.7339 7.36587 18.857 6.74968 19.1057C6.13256 19.3555 5.6354 19.4857 5.2553 19.4986C4.67722 19.5232 4.10103 19.2687 3.52589 18.7339C3.1588 18.4137 2.69965 17.8648 2.1496 17.0873C1.55945 16.2569 1.07426 15.2941 0.694155 14.1963C0.287075 13.0106 0.0830078 11.8624 0.0830078 10.7508C0.0830078 9.47753 0.358147 8.37932 0.909247 7.45902C1.34236 6.7198 1.91856 6.13668 2.63972 5.70861C3.36087 5.28054 4.14008 5.06239 4.97922 5.04844C5.43837 5.04844 6.04049 5.19046 6.78874 5.46959C7.53487 5.74966 8.01396 5.89168 8.22401 5.89168C8.38105 5.89168 8.91327 5.72561 9.81551 5.39453C10.6687 5.08749 11.3888 4.96036 11.9787 5.01044C13.5773 5.13945 14.7782 5.76959 15.5769 6.90487C14.1473 7.7711 13.4401 8.98437 13.4541 10.5408C13.467 11.7531 13.9068 12.762 14.7712 13.563C15.1629 13.9348 15.6004 14.2221 16.0871 14.4262C15.9815 14.7323 15.8701 15.0255 15.7516 15.307ZM12.0855 0.880291C12.0855 1.83051 11.7383 2.71772 11.0464 3.53892C10.2113 4.51516 9.20131 5.07928 8.10603 4.99027C8.09207 4.87627 8.08398 4.75629 8.08398 4.63022C8.08398 3.71801 8.48109 2.74177 9.1863 1.94356C9.53837 1.53941 9.98615 1.20336 10.5292 0.935295C11.071 0.671227 11.5835 0.525191 12.0655 0.500183C12.0796 0.627212 12.0855 0.754249 12.0855 0.880279V0.880291Z" fill="black"/>
</svg>
